<?xml version="1.0" standalone="no"?>
<!DOCTYPE svg PUBLIC "-//W3C//DTD SVG 20010904//EN"
 "http://www.w3.org/TR/2001/REC-SVG-20010904/DTD/svg10.dtd">
<svg version="1.0" xmlns="http://www.w3.org/2000/svg"
 width="1280.000000pt" height="640.000000pt" viewBox="0 0 1280.000000 640.000000"
 preserveAspectRatio="xMidYMid meet">
<g transform="translate(0.000000,640.000000) scale(0.100000,-0.100000)"
fill="#000000" stroke="none">
<path d="M12147 5909 c-241 -31 -1168 -251 -2332 -553 -198 -52 -463 -119
-590 -150 -270 -65 -438 -110 -945 -251 -362 -100 -867 -232 -1210 -314 -234
-57 -280 -82 -444 -240 -72 -70 -158 -145 -191 -168 -96 -64 -281 -165 -565
-307 -363 -181 -631 -294 -1073 -450 -199 -71 -244 -83 -257 -70 -5 5 -15 57
-21 114 -15 131 -6 422 21 735 25 287 27 520 4 573 -21 50 -56 85 -112 110
-106 48 -696 260 -795 286 -103 27 -258 48 -314 44 -47 -4 -60 -10 -79 -33
-24 -31 -18 -31 -134 11 -143 51 -276 30 -355 -57 -19 -22 -40 -39 -47 -39 -6
0 -39 11 -72 24 -100 40 -184 51 -250 32 -45 -13 -63 -26 -104 -73 l-50 -57
-68 36 c-122 64 -233 83 -325 58 -45 -13 -118 -76 -144 -124 -11 -20 -25 -36
-33 -36 -7 0 -34 11 -60 24 -81 41 -191 69 -272 70 -126 1 -217 -58 -279 -181
-12 -24 -26 -43 -31 -43 -5 0 -35 7 -67 15 -78 20 -282 20 -352 -1 -65 -19
-163 -112 -206 -195 l-29 -56 28 -204 c14 -112 51 -357 81 -544 84 -530 106
-771 104 -1145 -2 -249 9 -228 -127 -261 -141 -34 -262 -93 -332 -160 -56 -54
-79 -99 -105 -203 -15 -59 -16 -80 -6 -138 6 -37 16 -98 22 -135 24 -148 70
-328 96 -375 56 -103 205 -218 693 -540 313 -206 469 -302 578 -357 160 -81
282 -107 422 -91 99 11 73 0 1070 490 706 347 883 431 1400 665 383 172 680
318 768 375 127 82 201 170 226 268 15 57 18 59 286 178 534 238 1042 414
1549 538 195 48 265 56 615 65 298 9 302 9 396 40 111 36 206 91 494 289 260
179 294 201 457 287 195 104 290 146 1024 455 1095 461 1588 659 1825 734 358
113 626 240 719 342 27 30 57 76 69 109 34 88 85 351 73 373 -11 20 -221 141
-300 172 -42 16 -241 53 -267 49 -5 -1 -39 -5 -77 -10z"/>
</g>
</svg>
