<?xml version="1.0" standalone="no"?>
<!DOCTYPE svg PUBLIC "-//W3C//DTD SVG 20010904//EN"
 "http://www.w3.org/TR/2001/REC-SVG-20010904/DTD/svg10.dtd">
<svg version="1.0" xmlns="http://www.w3.org/2000/svg"
 width="1227.000000pt" height="1280.000000pt" viewBox="0 0 1227.000000 1280.000000"
 preserveAspectRatio="xMidYMid meet">
<g transform="translate(0.000000,1280.000000) scale(0.100000,-0.100000)"
fill="#000000" stroke="none">
<path d="M11015 12776 c-172 -43 -219 -85 -277 -247 -21 -57 -54 -160 -73
-229 -81 -281 -103 -337 -180 -466 -45 -74 -155 -306 -155 -327 0 -7 34 -39
75 -70 41 -32 75 -62 75 -67 0 -5 -12 -13 -27 -16 -16 -4 -53 -22 -83 -40 -84
-51 -170 -79 -361 -119 -508 -105 -662 -217 -858 -626 -219 -457 -432 -1105
-546 -1657 -117 -572 -165 -1030 -195 -1882 -21 -593 -50 -850 -126 -1114 -14
-49 -65 -197 -113 -330 -49 -133 -112 -306 -141 -386 -73 -202 -147 -349 -223
-445 -36 -44 -136 -146 -223 -226 -295 -272 -305 -278 -419 -279 -114 0 -363
69 -502 139 -196 98 -289 105 -400 29 -115 -78 -251 -341 -311 -603 -48 -208
-52 -417 -12 -666 24 -144 48 -225 100 -329 60 -119 48 -112 290 -169 371 -87
671 -150 890 -186 261 -43 502 -118 1020 -320 337 -131 380 -144 505 -156 242
-21 766 31 977 97 112 36 167 90 227 229 58 133 165 346 258 514 232 418 360
732 502 1226 77 272 301 1084 391 1425 176 664 236 853 415 1316 249 641 307
868 470 1839 79 473 236 1347 271 1511 l15 70 -27 50 c-40 72 -132 187 -308
384 -86 96 -179 209 -208 250 -72 106 -110 143 -216 212 -57 37 -90 64 -84 70
5 5 39 15 76 23 141 30 147 40 118 187 -26 133 -28 250 -7 411 17 130 41 432
51 647 6 139 5 146 -16 173 -53 67 -168 121 -332 157 -115 25 -189 24 -303 -4z"/>
<path d="M3550 11961 c-53 -12 -208 -78 -270 -116 -152 -92 -185 -169 -230
-535 -46 -360 -146 -716 -297 -1055 -78 -175 -122 -294 -202 -555 -179 -580
-214 -716 -276 -1071 -46 -265 -80 -416 -165 -739 -84 -313 -94 -356 -125
-520 -13 -69 -41 -192 -62 -275 -31 -123 -38 -168 -38 -250 0 -97 1 -103 35
-159 53 -89 135 -174 181 -187 94 -29 177 38 328 264 113 169 205 291 391 517
78 95 209 262 290 370 206 274 277 357 426 497 219 206 306 272 339 259 19 -7
17 -40 -21 -261 -35 -208 -81 -383 -225 -865 -178 -593 -208 -665 -467 -1130
-193 -347 -222 -420 -222 -570 0 -165 64 -185 318 -100 184 61 345 149 491
267 90 73 338 303 447 415 148 152 192 218 398 595 69 128 175 316 236 418
178 300 226 405 368 805 132 372 150 415 270 665 138 289 191 413 227 531 65
213 101 282 260 494 121 163 163 226 208 316 101 201 147 503 120 787 l-6 68
-86 51 c-171 101 -349 187 -481 233 -156 54 -269 105 -317 141 -18 14 -62 70
-97 124 -101 155 -167 210 -251 210 -19 0 -95 -12 -167 -26 -170 -33 -299 -31
-367 4 -73 38 -258 165 -381 261 -63 50 -135 98 -160 107 -34 13 -87 17 -215
20 -93 1 -186 -1 -205 -5z"/>
<path d="M1579 4479 c-85 -11 -196 -49 -266 -91 -112 -67 -162 -160 -171 -311
l-5 -88 -61 6 c-49 5 -98 0 -227 -25 -90 -17 -169 -37 -176 -43 -6 -7 -30 -75
-53 -152 -49 -166 -74 -238 -141 -405 -52 -130 -82 -170 -124 -170 -33 0 -143
-42 -193 -74 -83 -52 -162 -163 -162 -227 0 -45 55 -201 115 -324 111 -230
262 -434 377 -511 163 -109 513 -224 1048 -344 124 -28 367 -89 540 -136 524
-142 711 -184 827 -184 78 0 99 8 198 75 80 55 149 78 205 69 14 -2 162 -26
330 -54 1430 -234 1636 -272 1958 -361 78 -22 301 -78 495 -125 193 -47 424
-102 512 -124 377 -91 707 -190 965 -290 302 -117 449 -156 795 -210 267 -41
328 -53 545 -111 235 -62 397 -91 685 -124 127 -14 307 -41 400 -60 94 -19
233 -41 310 -50 77 -8 174 -20 215 -25 273 -36 587 46 732 190 45 45 60 69 73
115 38 128 -4 234 -150 381 -129 130 -295 248 -450 320 -84 38 -1083 374
-1310 439 -486 140 -692 180 -1116 215 -305 26 -461 48 -764 111 -502 104
-609 115 -1181 129 -664 15 -1077 35 -1389 66 -180 18 -273 32 -550 84 -115
21 -338 57 -495 80 -338 48 -481 73 -612 106 -114 28 -148 42 -148 60 0 26 98
221 177 354 45 74 111 171 147 214 l67 80 -43 45 c-127 136 -274 281 -286 281
-27 0 -23 31 12 73 101 123 129 313 66 438 -12 23 -65 90 -118 148 -112 125
-180 224 -189 274 -3 23 0 51 10 76 15 37 15 41 1 56 -27 27 -86 0 -172 -79
-75 -70 -122 -156 -126 -232 -2 -30 -7 -58 -10 -62 -12 -11 -69 27 -181 122
-113 95 -340 248 -454 305 -66 34 -136 53 -281 77 -94 15 -106 15 -201 3z"/>
</g>
</svg>
