<?xml version="1.0" encoding="UTF-8" standalone="no"?>
<svg
   xmlns:dc="http://purl.org/dc/elements/1.1/"
   xmlns:cc="http://creativecommons.org/ns#"
   xmlns:rdf="http://www.w3.org/1999/02/22-rdf-syntax-ns#"
   xmlns:svg="http://www.w3.org/2000/svg"
   xmlns="http://www.w3.org/2000/svg"
   xmlns:sodipodi="http://sodipodi.sourceforge.net/DTD/sodipodi-0.dtd"
   xmlns:inkscape="http://www.inkscape.org/namespaces/inkscape"
   version="1.1"
   id="Capa_1"
   x="0px"
   y="0px"
   viewBox="0 0 620.07922 620.07923"
   xml:space="preserve"
   width="210mm"
   height="210mm"
   class=""
   inkscape:version="0.91 r13725"
   sodipodi:docname="smoking.svg"><metadata
     id="metadata25"><rdf:RDF><cc:Work
         rdf:about=""><dc:format>image/svg+xml</dc:format><dc:type
           rdf:resource="http://purl.org/dc/dcmitype/StillImage" /><dc:title></dc:title></cc:Work></rdf:RDF></metadata><defs
     id="defs23" /><sodipodi:namedview
     pagecolor="#ffffff"
     bordercolor="#666666"
     borderopacity="1"
     objecttolerance="10"
     gridtolerance="10"
     guidetolerance="10"
     inkscape:pageopacity="0"
     inkscape:pageshadow="2"
     inkscape:window-width="1297"
     inkscape:window-height="744"
     id="namedview21"
     showgrid="false"
     units="mm"
     height="210mm"
     showborder="true"
     inkscape:snap-to-guides="false"
     inkscape:snap-grids="false"
     inkscape:snap-center="true"
     inkscape:zoom="0.5"
     inkscape:cx="-75.932203"
     inkscape:cy="256"
     inkscape:window-x="69"
     inkscape:window-y="24"
     inkscape:window-maximized="1"
     inkscape:current-layer="Capa_1" /><g
     id="g3"
     transform="matrix(0.96875,0,0,0.87132355,103.37278,-7.509689)"><g
       id="g5"><g
         id="g7"><g
           id="g9"><path
             d="m 299.307,206.827 -32.64,0 0,0.107 c -21.76,0 -39.467,-20.907 -39.467,-42.667 0,-21.76 17.707,-37.333 39.467,-37.333 l 0,-32 c -39.36,0 -71.467,32 -71.467,71.467 0,39.467 32,71.467 71.467,71.467 l 0,-0.107 32.64,0 c 22.293,0 42.027,15.787 42.027,43.84 l 0,27.733 32,0 0,-35.094 c -10e-4,-38.4 -34.134,-67.413 -74.027,-67.413 z"
             data-original="#000000"
             class="active-path"
             data-old_color="#EAA358"
             id="path11"
             inkscape:connector-curvature="0"
             style="fill:#e9a258" /><rect
             x="341.33301"
             y="330.66699"
             width="32"
             height="64"
             data-original="#000000"
             class="active-path"
             data-old_color="#EAA358"
             id="rect13"
             style="fill:#e9a258" /><rect
             x="0"
             y="330.66699"
             width="320"
             height="64"
             data-original="#000000"
             class="active-path"
             data-old_color="#EAA358"
             id="rect15"
             style="fill:#e9a258" /><path
             d="M 359.467,154.24 C 372.587,141.333 380.8,123.307 380.8,103.467 380.8,64 348.693,32 309.333,32 l 0,32 c 21.76,0 39.467,17.707 39.467,39.467 0,21.76 -17.707,39.467 -39.467,39.467 l 0,32 c 47.893,0 85.333,38.933 85.333,86.827 l 0,47.573 32,0 0,-47.68 C 426.667,214.187 399.36,173.227 359.467,154.24 Z"
             data-original="#000000"
             class="active-path"
             data-old_color="#EAA358"
             id="path17"
             inkscape:connector-curvature="0"
             style="fill:#e9a258" /><rect
             x="394.66699"
             y="330.66699"
             width="32"
             height="64"
             data-original="#000000"
             class="active-path"
             data-old_color="#EAA358"
             id="rect19"
             style="fill:#e9a258" /></g></g></g></g></svg>